<?xml version="1.0" encoding="UTF-8" standalone="no"?>
<!DOCTYPE svg PUBLIC "-//W3C//DTD SVG 1.1//EN" "http://www.w3.org/Graphics/SVG/1.1/DTD/svg11.dtd">
<svg width="100%" height="100%" viewBox="0 0 704 705" version="1.1" xmlns="http://www.w3.org/2000/svg" xmlns:xlink="http://www.w3.org/1999/xlink" xml:space="preserve" xmlns:serif="http://www.serif.com/" style="fill-rule:evenodd;clip-rule:evenodd;">
    <g transform="matrix(1,0,0,1,-47.9384,-30.5544)">
        <g id="Icons">
            <g>
                <path d="M648.333,135C583.004,69.48 494.189,32.616 401.665,32.616C210.934,32.616 53.853,189.269 53.333,380C52.574,440.974 68.73,500.982 100,553.333L50,733.333L235,685C286.042,712.995 343.456,727.349 401.667,726.667C402.136,726.669 402.606,726.67 403.076,726.67C593.251,726.67 749.742,570.179 749.742,380.003C749.742,288.159 713.243,199.977 648.333,135ZM401.667,668.333C345.448,668.737 290.347,652.497 243.333,621.667L133.333,651.667L163.333,545C130.205,496.312 112.224,438.887 111.667,380C111.663,379.444 111.662,378.889 111.662,378.333C111.662,219.244 242.573,88.333 401.662,88.333C560.751,88.333 691.662,219.244 691.662,378.333C691.662,537.421 560.754,668.331 401.667,668.333Z" style="fill-rule:nonzero;stroke:white;stroke-width:1px;"/>
                <path d="M560,453.333C540.668,442.535 520.621,433.068 500,425C493.333,421.667 486.667,420 481.667,428.333C476.667,436.667 458.333,456.667 453.333,463.333C448.675,468.664 440.543,469.403 435,465C409.46,454.469 385.814,439.831 365,421.667C345.885,404.284 329.581,384.044 316.667,361.667C315.26,359.691 314.504,357.326 314.504,354.901C314.504,350.878 316.586,347.128 320,345L333.333,328.333C336.7,324.285 339.503,319.8 341.667,315C344.343,310.365 344.343,304.635 341.667,300C338.333,295 321.667,253.333 315,235C308.333,216.667 300,220 295,220L278.333,220C269.129,219.864 260.414,224.222 255,231.667C234.882,249.916 223.882,276.195 225,303.333C227.905,336.04 240.045,367.257 260,393.333C265,398.333 321.667,486.667 408.333,523.333C424.363,531.057 441.11,537.198 458.333,541.667C476.057,547.575 495.026,548.725 513.333,545C530,543.333 565,525 571.667,505C578.333,485 580,466.667 576.667,463.333C572.167,458.494 566.388,455.026 560,453.333Z" style="fill-rule:nonzero;stroke:white;stroke-width:1px;"/>
            </g>
        </g>
    </g>
</svg>
